<svg width="379" height="379" viewBox="0 0 379 379" fill="none" xmlns="http://www.w3.org/2000/svg">
<path d="M189.543 252.309C185.865 252.316 182.301 251.035 179.47 248.689L85.0354 169.994C81.8212 167.322 79.7999 163.483 79.4162 159.321C79.0325 155.159 80.3178 151.016 82.9893 147.801C85.6608 144.587 89.4998 142.566 93.6616 142.182C97.8234 141.799 101.967 143.084 105.181 145.755L189.543 216.266L273.904 148.274C275.514 146.966 277.367 145.99 279.355 145.401C281.344 144.812 283.429 144.621 285.491 144.841C287.553 145.06 289.552 145.685 291.372 146.679C293.192 147.673 294.798 149.018 296.096 150.634C297.538 152.253 298.629 154.151 299.303 156.211C299.976 158.271 300.217 160.448 300.01 162.605C299.804 164.762 299.153 166.853 298.101 168.748C297.048 170.642 295.616 172.299 293.893 173.614L199.458 249.633C196.545 251.609 193.054 252.551 189.543 252.309V252.309Z" fill="#231F20"/>
</svg>
